<svg xmlns="http://www.w3.org/2000/svg" viewBox="0 0 70 70" id="1023093040" class="svg u_1023093040" data-icon-name="wp-network"> <g id="1535646443"> <circle cx="38.3" cy="51.5" r="2" id="1748597847"></circle> 
 <path d="M56.5,34.3c-0.3,0-0.5-0.1-0.7-0.3c-4.7-4.6-10.9-7.1-17.5-7.1c-6.6,0-12.8,2.5-17.5,7.1c-0.4,0.4-1,0.4-1.4,0
		c-0.4-0.4-0.4-1,0-1.4c5.1-5,11.8-7.7,18.9-7.7c7.1,0,13.8,2.7,18.9,7.7c0.4,0.4,0.4,1,0,1.4C57,34.2,56.8,34.3,56.5,34.3z" id="1013036072"></path> 
 <path d="M62.3,28.3c-0.3,0-0.5-0.1-0.7-0.3c-6.3-6.1-14.6-9.5-23.3-9.5S21.3,21.9,15,28c-0.4,0.4-1,0.4-1.4,0c-0.4-0.4-0.4-1,0-1.4
		c6.7-6.5,15.4-10.1,24.7-10.1c9.3,0,18,3.6,24.7,10.1c0.4,0.4,0.4,1,0,1.4C62.8,28.2,62.6,28.3,62.3,28.3z" id="1059948373"></path> 
 <path d="M50.7,40.2c-0.3,0-0.5-0.1-0.7-0.3c-3.1-3.1-7.3-4.8-11.7-4.8c-4.4,0-8.5,1.7-11.7,4.8c-0.4,0.4-1,0.4-1.4,0
		c-0.4-0.4-0.4-1,0-1.4c3.5-3.4,8.2-5.3,13.1-5.3c4.9,0,9.5,1.9,13.1,5.3c0.4,0.4,0.4,1,0,1.4C51.2,40.1,50.9,40.2,50.7,40.2z" id="1898962635"></path> 
 <path d="M44.9,46.2c-0.3,0-0.5-0.1-0.7-0.3c-1.6-1.5-3.7-2.4-5.9-2.4c-2.2,0-4.3,0.8-5.9,2.4c-0.4,0.4-1,0.4-1.4,0
		c-0.4-0.4-0.4-1,0-1.4c2-1.9,4.5-3,7.2-3c2.7,0,5.3,1,7.2,3c0.4,0.4,0.4,1,0,1.4C45.4,46.1,45.1,46.2,44.9,46.2z" id="1654006451"></path> 
</g> 
</svg>